<svg width="25" height="40" viewBox="0 0 25 40" fill="none" xmlns="http://www.w3.org/2000/svg">
<path d="M12.5 0C5.59625 0 0 5.59625 0 12.5C0 21.25 12.5 40 12.5 40C12.5 40 25 21.25 25 12.5C25 5.59625 19.4012 0 12.5 0ZM13.6625 22.4263C13.28 22.4587 12.9062 22.5 12.5 22.5C12.0938 22.5 11.7188 22.4587 11.3375 22.4263C6.3625 21.85 2.5 17.63 2.5 12.5C2.5 6.97625 6.97625 2.5 12.5 2.5C18.0187 2.5 22.5 6.97625 22.5 12.5C22.5 17.63 18.6325 21.85 13.6625 22.4263Z" fill="#FFC700"/>
<path d="M12.5007 17.5C15.2622 17.5 17.5007 15.2614 17.5007 12.5C17.5007 9.73858 15.2622 7.5 12.5007 7.5C9.73931 7.5 7.50073 9.73858 7.50073 12.5C7.50073 15.2614 9.73931 17.5 12.5007 17.5Z" fill="#FFC700"/>
</svg>
